<?xml version="1.0" encoding="UTF-8"?>
<!DOCTYPE svg PUBLIC "-//W3C//DTD SVG 1.1//EN" "http://www.w3.org/Graphics/SVG/1.1/DTD/svg11.dtd">
<svg xmlns="http://www.w3.org/2000/svg" version="1.1" width="225px" height="225px" style="shape-rendering:geometricPrecision; text-rendering:geometricPrecision; image-rendering:optimizeQuality; fill-rule:evenodd; clip-rule:evenodd" xmlns:xlink="http://www.w3.org/1999/xlink">
<g><path style="opacity:1" fill="#fefdfd" d="M -0.5,-0.5 C 74.5,-0.5 149.5,-0.5 224.5,-0.5C 224.5,21.1667 224.5,42.8333 224.5,64.5C 221.379,52.9078 216.545,41.9078 210,31.5C 207.233,25.1013 205.733,18.4347 205.5,11.5C 205.5,8.83333 205.5,6.16667 205.5,3.5C 202.287,3.19 199.287,3.52333 196.5,4.5C 179.892,5.20197 164.892,10.3686 151.5,20C 148.906,22.0865 146.906,24.5865 145.5,27.5C 134.947,23.1123 123.947,20.7789 112.5,20.5C 100.621,20.3042 89.2872,22.6376 78.5,27.5C 73.0753,19.5906 65.742,14.0906 56.5,11C 44.1847,6.69332 31.518,4.19332 18.5,3.5C 18.5,6.16667 18.5,8.83333 18.5,11.5C 18.2667,18.4347 16.7667,25.1013 14,31.5C 7.46038,41.8977 2.62704,52.8977 -0.5,64.5C -0.5,42.8333 -0.5,21.1667 -0.5,-0.5 Z"/></g>
<g><path style="opacity:1" fill="#feb09d" d="M 78.5,27.5 C 64.0672,35.5927 51.4006,45.926 40.5,58.5C 38.1253,39.0879 31.292,21.4213 20,5.5C 19.8091,7.70779 19.3091,9.70779 18.5,11.5C 18.5,8.83333 18.5,6.16667 18.5,3.5C 31.518,4.19332 44.1847,6.69332 56.5,11C 65.742,14.0906 73.0753,19.5906 78.5,27.5 Z"/></g>
<g><path style="opacity:1" fill="#ef7f73" d="M 196.5,4.5 C 199.385,4.1936 202.052,4.52693 204.5,5.5C 192.829,21.1965 185.829,38.8632 183.5,58.5C 172.708,45.7837 160.042,35.4504 145.5,27.5C 146.906,24.5865 148.906,22.0865 151.5,20C 164.892,10.3686 179.892,5.20197 196.5,4.5 Z"/></g>
<g><path style="opacity:1" fill="#8f4d29" d="M 204.5,5.5 C 204.205,7.73535 204.539,9.73535 205.5,11.5C 205.733,18.4347 207.233,25.1013 210,31.5C 216.545,41.9078 221.379,52.9078 224.5,64.5C 224.5,67.8333 224.5,71.1667 224.5,74.5C 222.386,86.3711 216.052,95.3711 205.5,101.5C 200.04,86.247 192.707,71.9137 183.5,58.5C 185.829,38.8632 192.829,21.1965 204.5,5.5 Z"/></g>
<g><path style="opacity:1" fill="#8f4d29" d="M 40.5,58.5 C 31.3088,71.8823 23.9755,86.2157 18.5,101.5C 7.95434,95.3906 1.621,86.3906 -0.5,74.5C -0.5,71.1667 -0.5,67.8333 -0.5,64.5C 2.62704,52.8977 7.46038,41.8977 14,31.5C 16.7667,25.1013 18.2667,18.4347 18.5,11.5C 19.3091,9.70779 19.8091,7.70779 20,5.5C 31.292,21.4213 38.1253,39.0879 40.5,58.5 Z"/></g>
<g><path style="opacity:1" fill="#d4aca0" d="M 196.5,4.5 C 199.287,3.52333 202.287,3.19 205.5,3.5C 205.5,6.16667 205.5,8.83333 205.5,11.5C 204.539,9.73535 204.205,7.73535 204.5,5.5C 202.052,4.52693 199.385,4.1936 196.5,4.5 Z"/></g>
<g><path style="opacity:1" fill="#f8c4b8" d="M 112.5,20.5 C 112.5,59.8333 112.5,99.1667 112.5,138.5C 83.3413,141.991 66.6746,158.325 62.5,187.5C 62.6992,191.63 63.5325,195.63 65,199.5C 67.6193,203.95 70.7859,207.95 74.5,211.5C 29.4784,196.92 9.64511,165.92 15,118.5C 16.1055,112.805 17.2722,107.139 18.5,101.5C 23.9755,86.2157 31.3088,71.8823 40.5,58.5C 51.4006,45.926 64.0672,35.5927 78.5,27.5C 89.2872,22.6376 100.621,20.3042 112.5,20.5 Z"/></g>
<g><path style="opacity:1" fill="#feb09d" d="M 112.5,20.5 C 123.947,20.7789 134.947,23.1123 145.5,27.5C 160.042,35.4504 172.708,45.7837 183.5,58.5C 192.707,71.9137 200.04,86.247 205.5,101.5C 213.964,127.478 211.797,152.478 199,176.5C 186.867,194.166 170.367,205.833 149.5,211.5C 161.958,199.981 164.791,186.315 158,170.5C 148.731,151.391 133.565,140.725 112.5,138.5C 112.5,99.1667 112.5,59.8333 112.5,20.5 Z"/></g>
<g><path style="opacity:1" fill="#fefefe" d="M -0.5,74.5 C 1.621,86.3906 7.95434,95.3906 18.5,101.5C 17.2722,107.139 16.1055,112.805 15,118.5C 9.64511,165.92 29.4784,196.92 74.5,211.5C 89.4687,219.016 105.135,221.683 121.5,219.5C 131.373,218.652 140.707,215.986 149.5,211.5C 170.367,205.833 186.867,194.166 199,176.5C 211.797,152.478 213.964,127.478 205.5,101.5C 216.052,95.3711 222.386,86.3711 224.5,74.5C 224.5,124.5 224.5,174.5 224.5,224.5C 149.5,224.5 74.5,224.5 -0.5,224.5C -0.5,174.5 -0.5,124.5 -0.5,74.5 Z"/></g>
<g><path style="opacity:1" fill="#904f2b" d="M 75.5,96.5 C 79.8333,96.5 84.1667,96.5 88.5,96.5C 88.5,100.833 88.5,105.167 88.5,109.5C 84.1667,109.5 79.8333,109.5 75.5,109.5C 75.5,105.167 75.5,100.833 75.5,96.5 Z"/></g>
<g><path style="opacity:1" fill="#68351b" d="M 135.5,96.5 C 139.833,96.5 144.167,96.5 148.5,96.5C 148.5,100.833 148.5,105.167 148.5,109.5C 144.167,109.5 139.833,109.5 135.5,109.5C 135.5,105.167 135.5,100.833 135.5,96.5 Z"/></g>
<g><path style="opacity:1" fill="#feb09d" d="M 112.5,138.5 C 112.5,165.5 112.5,192.5 112.5,219.5C 115.5,219.5 118.5,219.5 121.5,219.5C 105.135,221.683 89.4687,219.016 74.5,211.5C 70.7859,207.95 67.6193,203.95 65,199.5C 63.5325,195.63 62.6992,191.63 62.5,187.5C 66.6746,158.325 83.3413,141.991 112.5,138.5 Z"/></g>
<g><path style="opacity:1" fill="#ef7f72" d="M 112.5,138.5 C 133.565,140.725 148.731,151.391 158,170.5C 164.791,186.315 161.958,199.981 149.5,211.5C 140.707,215.986 131.373,218.652 121.5,219.5C 118.5,219.5 115.5,219.5 112.5,219.5C 112.5,192.5 112.5,165.5 112.5,138.5 Z"/></g>
<g><path style="opacity:1" fill="#8f4d29" d="M 90.5,169.5 C 94.8333,169.5 99.1667,169.5 103.5,169.5C 103.5,176.167 103.5,182.833 103.5,189.5C 99.1667,189.5 94.8333,189.5 90.5,189.5C 90.5,182.833 90.5,176.167 90.5,169.5 Z"/></g>
<g><path style="opacity:1" fill="#663419" d="M 120.5,169.5 C 124.833,169.5 129.167,169.5 133.5,169.5C 133.5,176.167 133.5,182.833 133.5,189.5C 129.167,189.5 124.833,189.5 120.5,189.5C 120.5,182.833 120.5,176.167 120.5,169.5 Z"/></g>
</svg>
